<svg width="25" height="19" viewBox="0 0 25 19" fill="none" xmlns="http://www.w3.org/2000/svg">
<path d="M20.809 1.52009C19.2889 0.811503 17.6432 0.297204 15.9289 5.25708e-05C15.9138 -0.000428132 15.8989 0.00239261 15.885 0.00831652C15.8712 0.0142404 15.8589 0.0231236 15.8488 0.0343395C15.6431 0.411493 15.4031 0.902934 15.2431 1.28009C13.4248 1.00579 11.5756 1.00579 9.75725 1.28009C9.59725 0.891505 9.35724 0.411493 9.14009 0.0343395C9.12866 0.0114817 9.09438 5.25708e-05 9.06009 5.25708e-05C7.34576 0.297204 5.71143 0.811503 4.17996 1.52009C4.16853 1.52009 4.1571 1.53152 4.14567 1.54295C1.03701 6.19451 0.179846 10.7203 0.602715 15.2005C0.602715 15.2233 0.614144 15.2462 0.637001 15.2576C2.6942 16.7662 4.6714 17.6805 6.62574 18.2863C6.66002 18.2977 6.69431 18.2863 6.70574 18.2634C7.1629 17.6348 7.57434 16.9719 7.92863 16.2748C7.95149 16.2291 7.92863 16.1834 7.88292 16.1719C7.23147 15.9205 6.61431 15.6233 6.00858 15.2805C5.96286 15.2576 5.96286 15.189 5.99715 15.1548C6.12287 15.0633 6.24858 14.9605 6.3743 14.869C6.39716 14.8462 6.43145 14.8462 6.4543 14.8576C10.3858 16.6519 14.626 16.6519 18.5118 14.8576C18.5346 14.8462 18.5689 14.8462 18.5918 14.869C18.7175 14.9719 18.8432 15.0633 18.9689 15.1662C19.0146 15.2005 19.0146 15.269 18.9575 15.2919C18.3632 15.6462 17.7346 15.9319 17.0832 16.1834C17.0375 16.1948 17.026 16.2519 17.0375 16.2862C17.4032 16.9834 17.8146 17.6462 18.2603 18.2748C18.2946 18.2863 18.3289 18.2977 18.3632 18.2863C20.329 17.6805 22.3062 16.7662 24.3634 15.2576C24.3862 15.2462 24.3977 15.2233 24.3977 15.2005C24.9005 10.0232 23.5633 5.53163 20.8547 1.54295C20.8433 1.53152 20.8318 1.52009 20.809 1.52009ZM8.52293 12.469C7.34576 12.469 6.36287 11.3832 6.36287 10.046C6.36287 8.70886 7.3229 7.62312 8.52293 7.62312C9.7344 7.62312 10.6944 8.72029 10.683 10.046C10.683 11.3832 9.72297 12.469 8.52293 12.469ZM16.4889 12.469C15.3117 12.469 14.3288 11.3832 14.3288 10.046C14.3288 8.70886 15.2888 7.62312 16.4889 7.62312C17.7003 7.62312 18.6604 8.72029 18.6489 10.046C18.6489 11.3832 17.7003 12.469 16.4889 12.469Z" fill="white"/>
</svg>
