<svg width="40" height="40" viewBox="0 0 40 40" fill="none" xmlns="http://www.w3.org/2000/svg">
<path fill-rule="evenodd" clip-rule="evenodd" d="M20 4.25C20.4142 4.25 20.75 4.58579 20.75 5V10.9166H20.8333C22.168 10.9166 23.25 11.9986 23.25 13.3333V15.9166H29.1667C34.6435 15.9166 39.0834 20.3565 39.0834 25.8333C39.0834 31.2504 34.7399 35.6529 29.3456 35.7484C29.3367 35.749 29.3277 35.7494 29.3188 35.7496C29.3112 35.7499 29.3037 35.75 29.2961 35.75L29.2355 35.7497L29.1667 35.75C29.1595 35.75 29.1524 35.7499 29.1453 35.7497C29.1342 35.7493 29.1232 35.7488 29.1122 35.748C25.7422 35.6783 22.6962 33.7467 21.1903 30.75H18.8098C17.3039 33.7467 14.2579 35.6783 10.8878 35.748C10.8699 35.7493 10.8517 35.75 10.8334 35.75H10.704H10.7036C10.6871 35.75 10.6707 35.7494 10.6545 35.7484C5.26017 35.653 0.916687 31.2504 0.916687 25.8333C0.916687 20.3565 5.35653 15.9166 10.8334 15.9166H16.75V13.3333C16.75 11.9986 17.832 10.9166 19.1667 10.9166H19.25V5C19.25 4.58579 19.5858 4.25 20 4.25ZM17.5 17.4166H10.8334C6.18496 17.4166 2.41669 21.1849 2.41669 25.8333C2.41669 30.4586 6.14769 34.2126 10.7643 34.2497C13.7529 34.2241 16.45 32.4434 17.6458 29.7002C17.7651 29.4268 18.035 29.25 18.3334 29.25H21.6667C21.965 29.25 22.235 29.4268 22.3542 29.7002C23.5501 32.4434 26.2472 34.2241 29.2358 34.2497C33.8524 34.2126 37.5834 30.4586 37.5834 25.8333C37.5834 21.1849 33.8151 17.4166 29.1667 17.4166H22.5H17.5ZM21.75 15.9166H18.25V13.3333C18.25 12.827 18.6604 12.4166 19.1667 12.4166H19.9922L20 12.4167L20.0079 12.4166H20.8333C21.3396 12.4166 21.75 12.827 21.75 13.3333V15.9166ZM11.5833 23.3334C11.5833 22.9192 11.2475 22.5834 10.8333 22.5834C10.4191 22.5834 10.0833 22.9192 10.0833 23.3334V25.0833H8.33331C7.9191 25.0833 7.58331 25.4191 7.58331 25.8333C7.58331 26.2475 7.9191 26.5833 8.33331 26.5833H10.0833V28.3334C10.0833 28.7476 10.4191 29.0834 10.8333 29.0834C11.2475 29.0834 11.5833 28.7476 11.5833 28.3334V26.5833H13.3333C13.7475 26.5833 14.0833 26.2475 14.0833 25.8333C14.0833 25.4191 13.7475 25.0833 13.3333 25.0833H11.5833V23.3334ZM28.6363 22.378C28.9292 22.0851 29.4041 22.0851 29.697 22.378L29.7053 22.3864C29.9982 22.6793 29.9982 23.1541 29.7053 23.447L29.697 23.4554C29.4041 23.7483 28.9292 23.7483 28.6363 23.4554L28.628 23.447C28.3351 23.1541 28.3351 22.6793 28.628 22.3864L28.6363 22.378ZM29.697 28.2113C29.4041 27.9184 28.9292 27.9184 28.6363 28.2113L28.628 28.2196C28.3351 28.5125 28.3351 28.9874 28.628 29.2803L28.6363 29.2886C28.9292 29.5815 29.4041 29.5815 29.697 29.2886L29.7053 29.2803C29.9982 28.9874 29.9982 28.5125 29.7053 28.2196L29.697 28.2113ZM25.7197 25.2947C26.0126 25.0018 26.4875 25.0018 26.7803 25.2947L26.7887 25.303C27.0816 25.5959 27.0816 26.0708 26.7887 26.3637L26.7803 26.372C26.4875 26.6649 26.0126 26.6649 25.7197 26.372L25.7114 26.3637C25.4185 26.0708 25.4185 25.5959 25.7114 25.303L25.7197 25.2947ZM32.6137 25.2947C32.3208 25.0018 31.8459 25.0018 31.553 25.2947L31.5447 25.303C31.2518 25.5959 31.2518 26.0708 31.5447 26.3637L31.553 26.372C31.8459 26.6649 32.3208 26.6649 32.6137 26.372L32.622 26.3637C32.9149 26.0708 32.9149 25.5959 32.622 25.303L32.6137 25.2947Z" fill="#67EBCB"/>
</svg>
