<svg width="24" height="24" viewBox="0 0 24 24" fill="none" xmlns="http://www.w3.org/2000/svg">
<path fill-rule="evenodd" clip-rule="evenodd" d="M16.4553 4.5878C15.2732 3.40716 13.6703 2.74477 11.9995 2.74646L11.9994 2.74646L11.9991 2.74646C8.52373 2.74857 5.70725 5.56619 5.70663 9.04164V9.04178V12.4728L4.66844 13.5119L4.6673 13.513C4.14858 14.0291 3.85628 14.7302 3.85486 15.462L4.60486 15.4635L3.85486 15.4658C3.85947 16.9265 5.04481 18.1081 6.50544 18.1082H6.50565L17.502 18.1112H17.5022C18.963 18.1112 20.1484 16.9295 20.153 15.4688L19.403 15.4665L20.153 15.4655C20.1521 14.7337 19.8602 14.0323 19.3416 13.516L19.3407 13.5151L18.3022 12.4759V9.04178V9.04164C18.3019 7.37077 17.6375 5.76854 16.4553 4.5878ZM12.0003 4.24646L11.9999 3.49646L12.0007 4.24646C13.2736 4.24509 14.4947 4.74969 15.3953 5.64913C16.2959 6.54854 16.802 7.76901 16.8022 9.04178V9.04191V12.7863C16.8022 12.9851 16.8812 13.1758 17.0217 13.3165L18.2812 14.577L18.2828 14.5786C18.519 14.8135 18.6522 15.1326 18.653 15.4657C18.6502 16.099 18.136 16.6111 17.5024 16.6112H17.5022L6.50585 16.6082H6.50564C5.87213 16.6082 5.35789 16.0963 5.35486 15.463C5.35602 15.1298 5.48941 14.8107 5.72577 14.5759L5.72764 14.574L6.98717 13.3135C7.12769 13.1728 7.20663 12.9821 7.20663 12.7833L7.20663 9.04191L7.20663 9.04178C7.20718 6.39426 9.35281 4.2479 12.0003 4.24646ZM10.5204 19.7535C10.1062 19.7535 9.77038 20.0893 9.77038 20.5035C9.77038 20.9177 10.1062 21.2535 10.5204 21.2535H13.4786C13.8928 21.2535 14.2286 20.9177 14.2286 20.5035C14.2286 20.0893 13.8928 19.7535 13.4786 19.7535H10.5204Z" fill="#BFC9D7"/>
</svg>
