<svg width="20" height="16" viewBox="0 0 20 16" fill="none" xmlns="http://www.w3.org/2000/svg">
<path d="M19.8228 11.8282C19.4319 12.3219 18.4746 12.6737 18.4746 12.6737L11.3546 15.2346V13.3455L16.5946 11.4755C17.1891 11.2628 17.28 10.9609 16.7973 10.8028C16.3146 10.6437 15.4409 10.6891 14.8455 10.9037L11.3546 12.1346V10.1755L11.5555 10.1064C11.5555 10.1064 12.5646 9.74913 13.9828 9.59185C15.4019 9.43549 17.1391 9.61367 18.5028 10.1309C20.0391 10.6173 20.2119 11.3346 19.8228 11.8282ZM12.0318 8.61185V3.78365C12.0318 3.21637 11.9273 2.69456 11.3955 2.54728C10.9891 2.41637 10.7364 2.79456 10.7364 3.36092V15.4546L7.4791 14.4191V0C8.86365 0.257274 10.8818 0.866367 11.9664 1.23182C14.7255 2.18001 15.6609 3.36092 15.6609 6.02002C15.6609 8.61185 14.0628 9.59458 12.0318 8.61276M1.5018 13.1491C-0.0763854 12.7037 -0.339114 11.7764 0.37998 11.2428C1.04453 10.75 2.17544 10.3791 2.17544 10.3791L6.84637 8.71549V10.6119L3.48454 11.8164C2.8909 12.0291 2.79999 12.331 3.28181 12.4891C3.76545 12.6482 4.63909 12.6028 5.23363 12.3891L6.84637 11.8037V13.4991L6.52455 13.5537C4.91181 13.8173 3.19454 13.7073 1.5018 13.1491Z" fill="#40484E"/>
</svg>
