<svg width="24" height="24" viewBox="0 0 24 24" fill="none" xmlns="http://www.w3.org/2000/svg">
<path fill-rule="evenodd" clip-rule="evenodd" d="M7.36853 7.36853C9.52656 5.21049 13.0254 5.21049 15.1835 7.36853C17.3214 9.50646 17.3413 12.9603 15.2432 15.1228C15.2212 15.1403 15.2 15.1593 15.1796 15.1796C15.1593 15.2 15.1403 15.2212 15.1228 15.2432C12.9603 17.3413 9.50646 17.3214 7.36853 15.1835C5.21049 13.0254 5.21049 9.52656 7.36853 7.36853ZM15.6858 16.7465C12.9267 18.9763 8.87254 18.8088 6.30787 16.2441C3.56404 13.5003 3.56404 9.05169 6.30787 6.30787C9.05169 3.56404 13.5003 3.56404 16.2441 6.30787C18.8088 8.87254 18.9763 12.9267 16.7465 15.6858L19.5303 18.4696C19.8232 18.7625 19.8232 19.2374 19.5303 19.5303C19.2374 19.8232 18.7625 19.8232 18.4696 19.5303L15.6858 16.7465Z" fill="#BFC9D7"/>
</svg>
