<svg width="20" height="20" viewBox="0 0 20 20" fill="none" xmlns="http://www.w3.org/2000/svg">
<path d="M3.42001 17.528C5.23984 19.1246 7.57908 20.0034 10 20C12.4225 20.0036 14.7634 19.1249 16.585 17.528C18.149 15.934 12.988 10.27 10 8.013C7.01501 10.27 1.85001 15.934 3.41801 17.528M12.718 5.523C14.801 7.99 18.954 14.117 17.781 16.283C19.2202 14.5064 20.0038 12.2884 20 10.002C20.0018 8.67815 19.7397 7.36722 19.2289 6.14589C18.718 4.92456 17.9688 3.81734 17.025 2.889C17.025 2.889 17.002 2.871 16.957 2.854C16.8818 2.82785 16.8026 2.81499 16.723 2.816C16.229 2.816 15.068 3.179 12.718 5.523ZM3.04501 2.855C2.99701 2.872 2.97701 2.889 2.97301 2.89C2.02979 3.81868 1.28109 4.926 0.770634 6.14729C0.260178 7.36857 -0.00179835 8.67933 9.29106e-06 10.003C9.29106e-06 12.382 0.832009 14.564 2.21701 16.281C1.05101 14.11 5.20101 7.988 7.28501 5.523C4.93501 3.178 3.77201 2.818 3.28001 2.818C3.2002 2.8154 3.12066 2.82866 3.04601 2.857L3.04501 2.855ZM10 2.959C10 2.959 7.54601 1.523 5.63001 1.455C4.87701 1.428 4.41701 1.701 4.36201 1.737C6.15001 0.539 8.05001 0 9.98801 0H10C11.945 0 13.838 0.538 15.638 1.737C15.582 1.699 15.126 1.427 14.372 1.455C12.455 1.523 10 2.955 10 2.955V2.959Z" fill="#40484E"/>
</svg>
